<?xml version="1.0" encoding="UTF-8"?>
<svg id="Layer_2" data-name="Layer 2" xmlns="http://www.w3.org/2000/svg" viewBox="0 0 859 329">
  <defs>
    <style>
      .cls-1 {
        fill: #fff;
      }

      .cls-2 {
        fill: #0030f5;
      }

      .cls-3 {
        fill: #000b57;
      }
    </style>
  </defs>
  <g id="Layer_1-2" data-name="Layer 1">
    <path class="cls-3" d="m199,0c101.82,1.6,203.65,3.1,305.5,4.5,118.18,1.63,236.34,3.13,354.5,4.5l-2.52,163.54c-.41,26.61-8.45,52.63-23.57,74.53-6.94,10.05-15.46,20.59-25.91,30.93-4.51,4.46-9.06,8.57-13.6,12.36-30.1,25.1-68.16,38.64-107.35,38.64H0c27.67-38.33,55.33-76.67,83-115-2.39-4.82-35.72-75,5-143C124.7,9.71,191.19.9,199,0Z"/>
    <g>
      <path class="cls-1" d="m209.16,52.5h599.84v122c-2.31,14.24-7.7,31.79-21,51-38.82,56.06-110.15,58.78-120,59-192.33-.67-384.67-1.33-577-2,21.02-24.02,36.98-49.48,58-73.5-4.54-3.08-29.17-20.48-33-58.5-3.81-37.76,20.8-59.52,27.69-66.73,25.12-26.3,56.53-30.41,65.47-31.27Z"/>
      <g>
        <path class="cls-3" d="m302.04,122.31l45.17-40.04h-142.33v.02c-27.48.84-50.67,28.39-50.67,62.61,0,32.31,19.85,59.17,45.17,62.8l-45.17,40.04h142.33v-.02c27.48-.84,50.67-28.39,50.67-62.61,0-32.31-19.85-59.17-45.17-62.8Z"/>
        <path class="cls-3" d="m575.77,82.27h204.02v63.46c0,56.3-45.71,102.01-102.01,102.01h0c-56.3,0-102.01-45.71-102.01-102.01v-63.46h0Z"/>
        <g>
          <path class="cls-3" d="m563.61,161.52v6.96c0,17.96-5.97,34.53-16.06,47.83-14.46,19.09-37.38,31.41-63.18,31.41h-45.72c-25.55,0-48.28-12.09-62.77-30.88-10.32-13.38-16.47-30.16-16.47-48.36v-6.96c0-43.76,35.48-79.24,79.24-79.24h45.72c43.76,0,79.24,35.48,79.24,79.24Z"/>
          <path class="cls-2" d="m547.45,216.31c-14.46,19.09-37.38,31.41-63.18,31.41h-45.72c-25.55,0-48.28-12.09-62.77-30.88l86.1-61.77,85.57,61.23Z"/>
          <path class="cls-1" d="m441.66,123.88h0c10.96,0,19.85-8.89,19.85-19.85h0c0,10.96,8.89,19.85,19.85,19.85h0c-10.96,0-19.85,8.89-19.85,19.85h0c0-10.96-8.89-19.85-19.85-19.85Z"/>
        </g>
      </g>
    </g>
  </g>
</svg>