<?xml version="1.0" encoding="UTF-8"?>
<svg id="Layer_2" data-name="Layer 2" xmlns="http://www.w3.org/2000/svg" viewBox="0 0 909.84 352">
  <defs>
    <style>
      .cls-1 {
        fill: #fff;
      }
    </style>
  </defs>
  <g id="Layer_1-2" data-name="Layer 1">
    <path class="cls-1" d="m849.84,60v122c-2.31,14.24-7.7,31.79-21,51-38.82,56.06-110.15,58.78-120,59-192.33-.67-384.67-1.33-577-2,21.02-24.02,36.98-49.48,58-73.5-4.54-3.08-29.17-20.48-33-58.5-3.81-37.76,20.8-59.52,27.69-66.73,25.12-26.3,56.53-30.41,65.47-31.27h599.84M909.84,0H247.13l-2.85.27c-22.94,2.2-66.85,11.56-103.14,49.55-.28.3-.62.63-1,1.02-5.71,5.78-17.59,17.8-27.51,36.02-12.84,23.57-18.2,50.25-15.49,77.16,1.9,18.87,7.28,36.89,15.78,53.12-.05.06-.09.13-.14.19-8.8,11.77-17.11,22.89-26.09,33.16L0,349.54l131.63.46,577,2h.77s.77-.01.77-.01c12.34-.28,37.34-2.13,66.21-11.44,42.92-13.85,78.11-39.22,101.77-73.38,16.16-23.33,26.55-48.75,30.9-75.56l.77-4.77V0h0Z"/>
    <path class="cls-1" d="m342.87,129.81l45.17-40.04h-142.33v.02c-27.48.84-50.67,28.39-50.67,62.61,0,32.31,19.85,59.17,45.17,62.8l-45.17,40.04h142.33v-.02c27.48-.84,50.67-28.39,50.67-62.61,0-32.31-19.85-59.17-45.17-62.8Z"/>
    <path class="cls-1" d="m616.61,89.77h204.02v63.46c0,56.3-45.71,102.01-102.01,102.01h0c-56.3,0-102.01-45.71-102.01-102.01v-63.46h0Z"/>
    <path class="cls-1" d="m525.21,89.78h-45.72c-43.76,0-79.24,35.48-79.24,79.24v6.96c0,18.21,6.15,34.99,16.47,48.36,14.49,18.79,37.22,30.88,62.77,30.88h45.72c25.8,0,48.72-12.33,63.18-31.41,10.09-13.3,16.06-29.87,16.06-47.83v-6.96c0-43.76-35.48-79.24-79.24-79.24Zm-22.86,21.74c0,5.48,2.22,10.45,5.81,14.04,3.6,3.6,8.56,5.82,14.04,5.82-5.48,0-10.44,2.22-14.04,5.81-3.59,3.59-5.81,8.55-5.81,14.04,0-5.49-2.22-10.45-5.81-14.04-3.6-3.59-8.56-5.81-14.04-5.81,10.96,0,19.85-8.89,19.85-19.86Zm18.15,128.28h-36.42c-20.36,0-38.47-9.63-50.01-24.6l68.6-49.21,68.17,48.78c-11.52,15.21-29.78,25.03-50.34,25.03Z"/>
  </g>
</svg>